<?xml version="1.0" encoding="UTF-8" standalone="no"?>
<!DOCTYPE svg PUBLIC "-//W3C//DTD SVG 1.1//EN" "http://www.w3.org/Graphics/SVG/1.1/DTD/svg11.dtd">
<svg version="1.1" xmlns="http://www.w3.org/2000/svg" xmlns:xlink="http://www.w3.org/1999/xlink" preserveAspectRatio="xMidYMid meet" viewBox="0 0 640 640" width="640" height="640"><defs><path d="M248.79 135.72L248.79 135.72L245.76 135.72L248.79 135.72Z" id="a1rYcp7gtF"></path><path d="M220 120.27L420 120.27L420 167.75L220 167.75L220 120.27Z" id="b7XWOLDVkj"></path><path d="M346.98 120L347.92 314.22L292.49 314.48L291.55 120.27L346.98 120Z" id="a3qz5IqSI8"></path><path d="M148.79 328.06L148.79 328.06L145.76 328.06L148.79 328.06Z" id="f2wVWtJNI"></path><path d="M120 310.27L320 310.27L320 357.73L120 357.73L120 310.27Z" id="a2m9BwluzY"></path><path d="M247.17 310.27L248.26 539.15L192.83 539.42L191.74 310.54L247.17 310.27Z" id="cfuBE4sKR"></path><path d="M348.79 327.06L348.79 327.06L345.76 327.06L348.79 327.06Z" id="a1ImJMA8sV"></path><path d="M320 310.27L520 310.27L520 357.73L320 357.73L320 310.27Z" id="bD7Lm670i"></path><path d="M447.17 310.27L448.26 539.15L392.83 539.42L391.74 310.54L447.17 310.27Z" id="b20D8XW8h"></path><path d="M349.27 81.6C349.27 97.28 336.15 110 320 110C303.85 110 290.73 97.28 290.73 81.6C290.73 65.93 303.85 53.2 320 53.2C336.15 53.2 349.27 65.93 349.27 81.6Z" id="b261aizNGe"></path></defs><g><g><g><use xlink:href="#a1rYcp7gtF" opacity="1" fill="#3a3f5d" fill-opacity="1"></use></g><g><use xlink:href="#b7XWOLDVkj" opacity="1" fill="#3a3f5d" fill-opacity="1"></use></g><g><use xlink:href="#a3qz5IqSI8" opacity="1" fill="#3a3f5d" fill-opacity="1"></use></g><g><use xlink:href="#f2wVWtJNI" opacity="1" fill="#3a3f5d" fill-opacity="1"></use></g><g><use xlink:href="#a2m9BwluzY" opacity="1" fill="#3a3f5d" fill-opacity="1"></use></g><g><use xlink:href="#cfuBE4sKR" opacity="1" fill="#3a3f5d" fill-opacity="1"></use></g><g><use xlink:href="#a1ImJMA8sV" opacity="1" fill="#3a3f5d" fill-opacity="1"></use></g><g><use xlink:href="#bD7Lm670i" opacity="1" fill="#3a3f5d" fill-opacity="1"></use></g><g><use xlink:href="#b20D8XW8h" opacity="1" fill="#3a3f5d" fill-opacity="1"></use></g><g><use xlink:href="#b261aizNGe" opacity="1" fill="#3a3f5d" fill-opacity="1"></use></g></g></g></svg>