<?xml version="1.0" standalone="no"?>
<!DOCTYPE svg PUBLIC "-//W3C//DTD SVG 20010904//EN"
 "http://www.w3.org/TR/2001/REC-SVG-20010904/DTD/svg10.dtd">
<svg version="1.0" xmlns="http://www.w3.org/2000/svg"
 width="640.000000pt" height="640.000000pt" viewBox="0 0 640.000000 640.000000"
 preserveAspectRatio="xMidYMid meet">
<metadata>
Created by potrace 1.11, written by Peter Selinger 2001-2013
</metadata>
<g transform="translate(0.000000,640.000000) scale(0.100000,-0.100000)"
fill="#000000" stroke="none">
<path d="M3125 5858 c-50 -11 -123 -58 -156 -100 -86 -111 -78 -264 18 -365
128 -133 351 -117 454 33 148 216 -53 492 -316 432z"/>
<path d="M2202 4961 l3 -236 340 -2 c187 -1 347 -2 356 -2 15 -1 17 -35 19
-363 0 -200 2 -519 3 -710 2 -304 0 -348 -13 -348 -8 -1 -396 -1 -862 -2
l-848 -1 0 -237 0 -237 360 1 360 1 1 -185 c2 -918 8 -1623 14 -1628 3 -4 128
-7 276 -7 262 0 269 1 270 20 1 22 -2 624 -5 1328 -1 275 1 460 7 464 5 3 331
6 723 7 l714 1 1 -200 c2 -861 8 -1605 12 -1612 6 -9 536 -7 545 2 3 3 4 177
3 387 -9 1457 -9 1418 13 1419 12 0 175 1 364 1 l342 1 0 237 0 238 -859 -2
-859 -1 -4 50 c-2 28 -3 349 -3 714 l0 664 360 1 360 1 3 236 2 236 -1000 0
-1000 0 2 -236z"/>
</g>
</svg>
